<svg width="32" height="33" viewBox="0 0 32 33" fill="none" xmlns="http://www.w3.org/2000/svg">
<path d="M30.3996 24.1138V9.71375C30.3996 8.38575 29.3276 7.31375 27.9996 7.31375H5.58359C4.25559 7.31375 3.18359 8.38575 3.18359 9.71375V24.1138C3.18359 25.4417 4.25559 26.5138 5.58359 26.5138H27.9996C29.3276 26.5138 30.3996 25.4417 30.3996 24.1138ZM28.3036 9.53775C28.8316 10.0658 28.5436 10.6098 28.2556 10.8818L21.7596 16.8338L27.9996 23.3298C28.1916 23.5538 28.3196 23.9058 28.0956 24.1458C27.8876 24.4018 27.4076 24.3857 27.1996 24.2257L20.2076 18.2578L16.7836 21.3778L13.3756 18.2578L6.38359 24.2257C6.17559 24.3857 5.69559 24.4018 5.48759 24.1458C5.26359 23.9058 5.39159 23.5538 5.58359 23.3298L11.8236 16.8338L5.32759 10.8818C5.03959 10.6098 4.75159 10.0658 5.27959 9.53775C5.80759 9.00975 6.35159 9.26575 6.79959 9.64975L16.7836 17.7138L26.7836 9.64975C27.2316 9.26575 27.7756 9.00975 28.3036 9.53775Z" fill="#fff"/>
</svg>
